<svg xmlns="http://www.w3.org/2000/svg" xmlns:xlink="http://www.w3.org/1999/xlink" width="144" height="144" viewBox="0 0 119 119" fill="white"><defs><clipPath id="a"><path d="M142.639,219.68c-4.6,0-10.357-7.876-13.916-21.741a103.665,103.665,0,0,1-2.636-15.119,138.837,138.837,0,0,1,0-27.462,96.525,96.525,0,0,0-9.766,1.794c-.346,3.958-.525,7.964-.525,11.938s.179,7.978.525,11.938a124.749,124.749,0,0,0,2.3,15.473c3.989,18.428,12.139,32.847,24.019,32.847,7.959,0,14.239-6.475,18.721-16.286H150.578c-2.632,4.3-5.453,6.618-7.938,6.618" transform="translate(-115.797 -155.358)" clip-rule="evenodd"></path></clipPath><clipPath id="b"><path d="M154,142.411c-3.933-.346-7.913-.528-11.861-.528-4.349,0-8.737.217-13.059.637l-.6.061c-.409.042-.817.092-1.225.138q-3.112.346-6.15.836l-.117.019q-1.167.191-2.317.4l-.094.017-1.389.255c-19.4,3.817-34.95,12.192-34.95,24.64,0,8.005,6.436,14.324,16.189,18.831V176.874c-4.275-2.648-6.579-5.486-6.579-7.986,0-4.627,7.824-10.417,21.6-14v0l.16-.038,1.625-.389q1.746-.417,3.574-.777l.147-.029q1.812-.356,3.686-.654l.037-.006c.765-.12,1.54-.232,2.318-.336.259-.035.513-.074.774-.106l.2-.026q1.22-.154,2.479-.286a136.2,136.2,0,0,1,27.337-.006,99.416,99.416,0,0,0-1.78-9.825" transform="translate(-82.238 -141.883)" clip-rule="evenodd"></path></clipPath><clipPath id="c"><path d="M169.081,156.445a124.708,124.708,0,0,0-2.3-15.474c-3.989-18.428-12.139-32.847-24.019-32.847-7.958,0-14.239,6.475-18.72,16.286h10.781c2.632-4.3,5.453-6.618,7.938-6.618,4.6,0,10.358,7.876,13.916,21.74a103.549,103.549,0,0,1,2.636,15.12,138.838,138.838,0,0,1,0,27.462,97.065,97.065,0,0,0,9.767-1.793c.345-3.96.525-7.965.525-11.938s-.18-7.98-.525-11.938" transform="translate(-124.043 -108.124)" clip-rule="evenodd"></path></clipPath><clipPath id="d"><path d="M186.551,150.179v10.846c4.275,2.648,6.578,5.486,6.578,7.987,0,4.626-7.824,10.416-21.6,14v0l-.159.039-1.626.389q-1.747.417-3.575.778l-.142.028q-1.813.356-3.69.653l-.037.006c-.765.121-1.539.231-2.317.337-.26.035-.514.074-.775.106l-.194.027q-1.222.152-2.479.285a136.216,136.216,0,0,1-27.338.006q.675,5.143,1.78,9.825c3.933.347,7.914.527,11.861.527,4.349,0,8.738-.217,13.06-.636l.6-.061c.41-.041.818-.092,1.225-.138q3.11-.346,6.148-.836l.121-.02q1.166-.189,2.316-.4l.094-.016,1.388-.256c19.4-3.816,34.95-12.191,34.95-24.638,0-8.006-6.436-14.326-16.188-18.833" transform="translate(-129.199 -150.179)" clip-rule="evenodd"></path></clipPath><clipPath id="e"><path d="M183.957,192.4q-.947.366-1.935.715c-.225.08-.454.157-.683.235-.493.169-.99.337-1.5.5-.24.077-.482.155-.726.231q-.854.266-1.734.521c-.169.049-.334.1-.5.148q-1.172.334-2.385.645l-.049.014v5.978h-42c.042.137.085.276.127.411a51.169,51.169,0,0,0,3.848,9.256h47.64V192.364c-.032.014-.067.025-.1.037" transform="translate(-132.442 -192.364)" clip-rule="evenodd"></path></clipPath><clipPath id="f"><path d="M116.806,200.885h-5.942V158.628l-.458.144a50.477,50.477,0,0,0-9.152,3.854v47.926h18.582a85.51,85.51,0,0,1-3.03-9.667" transform="translate(-101.254 -158.628)" clip-rule="evenodd"></path></clipPath><clipPath id="g"><path d="M152.728,136.47a51.107,51.107,0,0,0-3.834-9.216H101.254v18.693c.057-.023.118-.043.176-.065q.9-.35,1.846-.684c.238-.084.481-.166.722-.249.477-.164.958-.325,1.449-.484.253-.082.507-.164.764-.243.547-.17,1.1-.338,1.666-.5.19-.056.378-.113.57-.168q1.154-.327,2.347-.634l.069-.019v-5.978h42.005c-.046-.151-.094-.3-.141-.451" transform="translate(-101.254 -127.254)" clip-rule="evenodd"></path></clipPath><clipPath id="h"><path d="M165.977,127.254a85.7,85.7,0,0,1,3.03,9.667h5.941v42.257c.154-.048.308-.1.46-.145a50.456,50.456,0,0,0,9.15-3.853V127.254H165.977" transform="translate(-165.977 -127.254)" clip-rule="evenodd"></path></clipPath></defs><g transform="translate(32.701 45.011)"><path d="M142.639,219.68c-4.6,0-10.357-7.876-13.916-21.741a103.665,103.665,0,0,1-2.636-15.119,138.837,138.837,0,0,1,0-27.462,96.525,96.525,0,0,0-9.766,1.794c-.346,3.958-.525,7.964-.525,11.938s.179,7.978.525,11.938a124.749,124.749,0,0,0,2.3,15.473c3.989,18.428,12.139,32.847,24.019,32.847,7.959,0,14.239-6.475,18.721-16.286H150.578c-2.632,4.3-5.453,6.618-7.938,6.618" transform="translate(-115.797 -155.358)" fill-rule="evenodd"></path><g clip-path="url(#a)"><rect width="77.379" height="105.806" transform="translate(-15.908 -15.908)"></rect></g></g><g transform="translate(0 32.579)"><path d="M154,142.411c-3.933-.346-7.913-.528-11.861-.528-4.349,0-8.737.217-13.059.637l-.6.061c-.409.042-.817.092-1.225.138q-3.112.346-6.15.836l-.117.019q-1.167.191-2.317.4l-.094.017-1.389.255c-19.4,3.817-34.95,12.192-34.95,24.64,0,8.005,6.436,14.324,16.189,18.831V176.874c-4.275-2.648-6.579-5.486-6.579-7.986,0-4.627,7.824-10.417,21.6-14v0l.16-.038,1.625-.389q1.746-.417,3.574-.777l.147-.029q1.812-.356,3.686-.654l.037-.006c.765-.12,1.54-.232,2.318-.336.259-.035.513-.074.774-.106l.2-.026q1.22-.154,2.479-.286a136.2,136.2,0,0,1,27.337-.006,99.416,99.416,0,0,0-1.78-9.825" transform="translate(-82.238 -141.883)" fill-rule="evenodd"></path><g clip-path="url(#b)"><rect width="105.357" height="77.652" transform="translate(-15.908 -15.908)"></rect></g></g><g transform="translate(40.737)"><path d="M169.081,156.445a124.708,124.708,0,0,0-2.3-15.474c-3.989-18.428-12.139-32.847-24.019-32.847-7.958,0-14.239,6.475-18.72,16.286h10.781c2.632-4.3,5.453-6.618,7.938-6.618,4.6,0,10.358,7.876,13.916,21.74a103.549,103.549,0,0,1,2.636,15.12,138.838,138.838,0,0,1,0,27.462,97.065,97.065,0,0,0,9.767-1.793c.345-3.96.525-7.965.525-11.938s-.18-7.98-.525-11.938" transform="translate(-124.043 -108.124)" fill-rule="evenodd"></path><g clip-path="url(#c)"><rect width="77.379" height="105.806" transform="translate(-15.908 -15.908)"></rect></g></g><g transform="translate(45.46 40.584)"><path d="M186.551,150.179v10.846c4.275,2.648,6.578,5.486,6.578,7.987,0,4.626-7.824,10.416-21.6,14v0l-.159.039-1.626.389q-1.747.417-3.575.778l-.142.028q-1.813.356-3.69.653l-.037.006c-.765.121-1.539.231-2.317.337-.26.035-.514.074-.775.106l-.194.027q-1.222.152-2.479.285a136.216,136.216,0,0,1-27.338.006q.675,5.143,1.78,9.825c3.933.347,7.914.527,11.861.527,4.349,0,8.738-.217,13.06-.636l.6-.061c.41-.041.818-.092,1.225-.138q3.11-.346,6.148-.836l.121-.02q1.166-.189,2.316-.4l.094-.016,1.388-.256c19.4-3.816,34.95-12.191,34.95-24.638,0-8.006-6.436-14.326-16.188-18.833" transform="translate(-129.199 -150.179)" fill-rule="evenodd"></path><g clip-path="url(#d)"><rect width="105.357" height="77.652" transform="translate(-15.908 -15.908)"></rect></g></g><g transform="translate(48.874 81.744)"><path d="M183.957,192.4q-.947.366-1.935.715c-.225.08-.454.157-.683.235-.493.169-.99.337-1.5.5-.24.077-.482.155-.726.231q-.854.266-1.734.521c-.169.049-.334.1-.5.148q-1.172.334-2.385.645l-.049.014v5.978h-42c.042.137.085.276.127.411a51.169,51.169,0,0,0,3.848,9.256h47.64V192.364c-.032.014-.067.025-.1.037" transform="translate(-132.442 -192.364)" fill-rule="evenodd"></path><g clip-path="url(#e)"><rect width="83.431" height="50.509" transform="translate(-15.909 -15.908)"></rect></g></g><g transform="translate(18.584 48.648)"><path d="M116.806,200.885h-5.942V158.628l-.458.144a50.477,50.477,0,0,0-9.152,3.854v47.926h18.582a85.51,85.51,0,0,1-3.03-9.667" transform="translate(-101.254 -158.628)" fill-rule="evenodd"></path><g clip-path="url(#f)"><rect width="50.398" height="83.74" transform="translate(-15.908 -15.908)"></rect></g></g><g transform="translate(18.512 18.563)"><path d="M152.728,136.47a51.107,51.107,0,0,0-3.834-9.216H101.254v18.693c.057-.023.118-.043.176-.065q.9-.35,1.846-.684c.238-.084.481-.166.722-.249.477-.164.958-.325,1.449-.484.253-.082.507-.164.764-.243.547-.17,1.1-.338,1.666-.5.19-.056.378-.113.57-.168q1.154-.327,2.347-.634l.069-.019v-5.978h42.005c-.046-.151-.094-.3-.141-.451" transform="translate(-101.254 -127.254)" fill-rule="evenodd"></path><g clip-path="url(#g)"><rect width="83.431" height="50.509" transform="translate(-15.908 -15.908)"></rect></g></g><g transform="translate(81.835 18.427)"><path d="M165.977,127.254a85.7,85.7,0,0,1,3.03,9.667h5.941v42.257c.154-.048.308-.1.46-.145a50.456,50.456,0,0,0,9.15-3.853V127.254H165.977" transform="translate(-165.977 -127.254)" fill-rule="evenodd"></path><g clip-path="url(#h)"><rect width="50.398" height="83.74" transform="translate(-15.908 -15.908)"></rect></g></g></svg>
